# xmcd CD database file
#
# Track frame offsets:
#	150
#	7534
#	29424
#	47917
#	68117
#	85042
#	105093
#	125498
#	143960
#	161512
#	182829
#	206648
#	216398
#	247238
#
# Disc length: 4440 seconds
#
# Revision: 0
# Processed by: cddbd v1.5.1PL0 Copyright (c) Steve Scherf et al.
# Submitted via: CDex 1.51
#
DISCID=bf11560e
DTITLE=JHETT a.k.a. YAKKO for AQUARIUS - JHETT (DISC-1)
DYEAR=2005
DGENRE=JPop
TTITLE0=Intro feat. ia
TTITLE1=Get Ready -Nite 2 Remember- feat. Sowelu and BIG-O
TTITLE2=Do or Die feat. 安室奈美恵
TTITLE3=Oh Boy feat. Heartsdales
TTITLE4=Sweetest feat. LISA
TTITLE5=Just Go feat. KODA KUMI
TTITLE6=Heart Breaker feat. RINKO URASHIMA
TTITLE7=Leave It To Fate feat. LORI FINE (COLDFEET)
TTITLE8=Get Out feat. YUKI (YeLLOW Generation)
TTITLE9=Call U Every Nite feat. MICHICO
TTITLE10=Everything Inside of Me feat. Lena Park
TTITLE11=Outro feat. ia
TTITLE12="Uh...Uh... feat AI - SUITE CHIC" Ver. 2K5
TTITLE13=CCCD
EXTD=YEAR: 2005
EXTT0=
EXTT1=
EXTT2=
EXTT3=
EXTT4=
EXTT5=
EXTT6=
EXTT7=
EXTT8=
EXTT9=
EXTT10=
EXTT11=
EXTT12=
EXTT13=
PLAYORDER=
